<svg xmlns="http://www.w3.org/2000/svg" viewBox="0 0 48 48" width="48px" height="48px">
    <defs>
        <linearGradient id="grad" x1="0%" y1="0%" x2="100%" y2="100%">
            <stop offset="0%" style="stop-color:#42a5f5;stop-opacity:1" />
            <stop offset="100%" style="stop-color:#1e88e5;stop-opacity:1" />
        </linearGradient>
    </defs>
    <path fill="url(#grad)" d="M34.46,30.46l-4.72-4.72a12,12,0,1,0-4,4l4.72,4.72A2,2,0,0,0,34.46,30.46ZM22,30a8,8,0,1,1,8-8A8,8,0,0,1,22,30Z"/>
    <rect x="16" y="18" width="12" height="8" rx="1" fill="#ffffff" fill-opacity="0.5"/>
    <circle cx="19" cy="21" r="1.5" fill="#ffffff"/>
    <path d="M26 23 L23 20 L21 22 L18 19 L16 21 L16 26 L28 26 L28 21 Z" fill="#ffffff" fill-opacity="0.8"/>
</svg>
